<svg width="152" height="140" viewBox="0 0 152 140" fill="none" xmlns="http://www.w3.org/2000/svg">
<path d="M136.845 25H15.1548C11.4794 25 8.5 27.9794 8.5 31.6548V118.345C8.5 122.021 11.4794 125 15.1548 125H136.845C140.521 125 143.5 122.021 143.5 118.345V31.6548C143.5 27.9794 140.521 25 136.845 25Z" fill="#F5F7FA"/>
<g filter="url(#filter0_ddd_4106_26470)">
<path d="M136.845 15H15.1548C11.4794 15 8.5 17.9794 8.5 21.6548V108.345C8.5 112.021 11.4794 115 15.1548 115H136.845C140.521 115 143.5 112.021 143.5 108.345V21.6548C143.5 17.9794 140.521 15 136.845 15Z" fill="black"/>
</g>
<path d="M136.845 15H15.1548C11.4794 15 8.5 17.9794 8.5 21.6548V108.345C8.5 112.021 11.4794 115 15.1548 115H136.845C140.521 115 143.5 112.021 143.5 108.345V21.6548C143.5 17.9794 140.521 15 136.845 15Z" fill="white" stroke="#EBEDF0"/>
<path fill-rule="evenodd" clip-rule="evenodd" d="M13.4911 15H138.509C141.265 15 143.5 17.2346 143.5 19.9911V26.6983H8.5V19.9911C8.5 17.2346 10.7346 15 13.4911 15Z" fill="#EBEDF0"/>
<path fill-rule="evenodd" clip-rule="evenodd" d="M17.2414 22.5204C17.4722 22.5204 17.6592 22.7074 17.6592 22.9382C17.6592 23.1689 17.4722 23.356 17.2414 23.356H13.9178C13.6871 23.356 13.5 23.1689 13.5 22.9382C13.5 22.7074 13.6871 22.5204 13.9178 22.5204H17.2414ZM17.2414 20.8492C17.4722 20.8492 17.6592 21.0362 17.6592 21.267C17.6592 21.4977 17.4722 21.6848 17.2414 21.6848H13.9178C13.6871 21.6848 13.5 21.4977 13.5 21.267C13.5 21.0362 13.6871 20.8492 13.9178 20.8492H17.2414ZM17.2414 19.178C17.4722 19.178 17.6592 19.365 17.6592 19.5958C17.6592 19.8265 17.4722 20.0136 17.2414 20.0136H13.9178C13.6871 20.0136 13.5 19.8265 13.5 19.5958C13.5 19.365 13.6871 19.178 13.9178 19.178H17.2414Z" fill="#898A8C"/>
<path d="M41.4923 18.75H39.6845C39.0352 18.75 38.5088 19.2764 38.5088 19.9258V21.7522C38.5088 22.4016 39.0352 22.928 39.6845 22.928H41.4923C42.1416 22.928 42.668 22.4016 42.668 21.7522V19.9258C42.668 19.2764 42.1416 18.75 41.4923 18.75Z" fill="#FFA114"/>
<path d="M22.3256 19.375L22.1545 20.6274H20.9322L21.1033 19.375H20.1988L19.7588 22.5673H20.6633L20.8344 21.2658H22.0812L21.8856 22.5673H22.7901L23.2301 19.375H22.3256Z" fill="#09121A"/>
<path d="M25.9925 22.5673H26.897L26.2859 19.375H25.8947H25.3813H25.0147L23.5234 22.5673H24.4035L24.6724 22.0271H25.8947L25.9925 22.5673ZM24.9169 21.4623L25.528 20.1362L25.7725 21.4623H24.9169Z" fill="#09121A"/>
<path d="M28.5106 21.8552L28.8529 19.375H27.9484L27.4839 22.5673H29.7085L29.8063 21.8552H28.5106Z" fill="#09121A"/>
<path d="M32.2017 19.3997C31.1016 19.3997 30.3193 20.1363 30.3193 21.2168C30.3193 22.0763 30.8083 22.5674 31.7128 22.5674C32.8128 22.5674 33.5951 21.8307 33.5951 20.7503C33.6196 19.8908 33.1306 19.3997 32.2017 19.3997ZM31.8594 21.9781C31.615 21.9781 31.1994 21.8798 31.175 21.1677V21.1432V21.094C31.1994 20.431 31.5416 20.0136 32.055 20.0136C32.2995 20.0136 32.7395 20.1118 32.7395 20.8485C32.7639 21.5361 32.3973 21.9781 31.8594 21.9781Z" fill="#09121A"/>
<path d="M131.398 19.178H117.679C116.643 19.178 115.804 20.0174 115.804 21.053C115.804 22.0885 116.643 22.928 117.679 22.928H131.398C132.433 22.928 133.273 22.0885 133.273 21.053C133.273 20.0174 132.433 19.178 131.398 19.178Z" fill="#D5D6D9"/>
<path d="M139.518 21.053C139.518 20.0174 138.679 19.178 137.643 19.178C136.608 19.178 135.768 20.0174 135.768 21.053C135.768 22.0885 136.608 22.928 137.643 22.928C138.679 22.928 139.518 22.0885 139.518 21.053Z" fill="#D5D6D9"/>
<path d="M68.5109 73.028C68.4149 73.028 68.3669 72.988 68.3669 72.908V70.604L73.9829 58.628C74.0309 58.58 74.0709 58.556 74.1029 58.556H76.7669C76.8149 58.556 76.8549 58.58 76.8869 58.628C76.9189 58.66 76.9189 58.7 76.8869 58.748L71.3429 70.508H75.3269V65.828C75.3269 65.748 75.3749 65.708 75.4709 65.708H77.8709C77.9669 65.708 78.0149 65.748 78.0149 65.828V70.508H79.2149C79.2949 70.508 79.3349 70.556 79.3349 70.652V72.908C79.3349 72.988 79.2949 73.028 79.2149 73.028H78.0149V75.38C78.0149 75.46 77.9669 75.5 77.8709 75.5H75.4709C75.3749 75.5 75.3269 75.46 75.3269 75.38V73.028H68.5109ZM87.6021 63.5C87.6021 62.732 87.4021 62.14 87.0021 61.724C86.6021 61.292 86.0661 61.076 85.3941 61.076C84.7221 61.076 84.1861 61.292 83.7861 61.724C83.3861 62.14 83.1861 62.732 83.1861 63.5V70.58C83.1861 71.348 83.3861 71.948 83.7861 72.38C84.1861 72.796 84.7221 73.004 85.3941 73.004C86.0661 73.004 86.6021 72.796 87.0021 72.38C87.4021 71.948 87.6021 71.348 87.6021 70.58V63.5ZM80.5221 63.356C80.5221 61.756 81.0181 60.54 82.0101 59.708C82.9861 58.844 84.1141 58.412 85.3941 58.412C86.6421 58.412 87.7701 58.844 88.7781 59.708C89.7701 60.572 90.2661 61.788 90.2661 63.356V70.724C90.2661 72.308 89.7701 73.524 88.7781 74.372C87.7861 75.22 86.6581 75.644 85.3941 75.644C84.0981 75.644 82.9701 75.22 82.0101 74.372C81.0181 73.524 80.5221 72.308 80.5221 70.724V63.356ZM91.5734 73.028C91.4774 73.028 91.4294 72.988 91.4294 72.908V70.604L97.0454 58.628C97.0934 58.58 97.1334 58.556 97.1654 58.556H99.8294C99.8774 58.556 99.9174 58.58 99.9494 58.628C99.9814 58.66 99.9814 58.7 99.9494 58.748L94.4054 70.508H98.3894V65.828C98.3894 65.748 98.4374 65.708 98.5334 65.708H100.933C101.029 65.708 101.077 65.748 101.077 65.828V70.508H102.277C102.357 70.508 102.397 70.556 102.397 70.652V72.908C102.397 72.988 102.357 73.028 102.277 73.028H101.077V75.38C101.077 75.46 101.029 75.5 100.933 75.5H98.5334C98.4374 75.5 98.3894 75.46 98.3894 75.38V73.028H91.5734Z" fill="#327DFF"/>
<path d="M8.5 26.6982H36V114.436H14.75C11.2982 114.436 8.5 111.638 8.5 108.186V26.6982Z" fill="#FAFBFC"/>
<g filter="url(#filter1_i_4106_26470)">
<path d="M8.5 26.6982H36V114.436H14.75C11.2982 114.436 8.5 111.638 8.5 108.186V26.6982Z" fill="black"/>
</g>
<path fill-rule="evenodd" clip-rule="evenodd" d="M19.75 43.75H31C31.6904 43.75 32.25 44.3096 32.25 45C32.25 45.6904 31.6904 46.25 31 46.25H19.75C19.0596 46.25 18.5 45.6904 18.5 45C18.5 44.3096 19.0596 43.75 19.75 43.75Z" fill="#EBEDF0"/>
<path d="M14.125 43.75H12.875C12.5298 43.75 12.25 44.0298 12.25 44.375V45.625C12.25 45.9702 12.5298 46.25 12.875 46.25H14.125C14.4702 46.25 14.75 45.9702 14.75 45.625V44.375C14.75 44.0298 14.4702 43.75 14.125 43.75Z" fill="#BBBDBF"/>
<path fill-rule="evenodd" clip-rule="evenodd" d="M19.75 55H31C31.6904 55 32.25 55.5596 32.25 56.25C32.25 56.9404 31.6904 57.5 31 57.5H19.75C19.0596 57.5 18.5 56.9404 18.5 56.25C18.5 55.5596 19.0596 55 19.75 55Z" fill="#EBEDF0"/>
<path d="M14.125 55H12.875C12.5298 55 12.25 55.2798 12.25 55.625V56.875C12.25 57.2202 12.5298 57.5 12.875 57.5H14.125C14.4702 57.5 14.75 57.2202 14.75 56.875V55.625C14.75 55.2798 14.4702 55 14.125 55Z" fill="#BBBDBF"/>
<path fill-rule="evenodd" clip-rule="evenodd" d="M19.75 66.25H31C31.6904 66.25 32.25 66.8096 32.25 67.5C32.25 68.1904 31.6904 68.75 31 68.75H19.75C19.0596 68.75 18.5 68.1904 18.5 67.5C18.5 66.8096 19.0596 66.25 19.75 66.25Z" fill="#EBEDF0"/>
<path d="M14.125 66.25H12.875C12.5298 66.25 12.25 66.5298 12.25 66.875V68.125C12.25 68.4702 12.5298 68.75 12.875 68.75H14.125C14.4702 68.75 14.75 68.4702 14.75 68.125V66.875C14.75 66.5298 14.4702 66.25 14.125 66.25Z" fill="#BBBDBF"/>
<path fill-rule="evenodd" clip-rule="evenodd" d="M11 28.75H33.5C34.1904 28.75 34.75 29.3096 34.75 30V37.5C34.75 38.1904 34.1904 38.75 33.5 38.75H11C10.3096 38.75 9.75 38.1904 9.75 37.5V30C9.75 29.3096 10.3096 28.75 11 28.75Z" fill="#0064FF" fill-opacity="0.1"/>
<path fill-rule="evenodd" clip-rule="evenodd" d="M19.75 32.5H31C31.6904 32.5 32.25 33.0596 32.25 33.75C32.25 34.4404 31.6904 35 31 35H19.75C19.0596 35 18.5 34.4404 18.5 33.75C18.5 33.0596 19.0596 32.5 19.75 32.5Z" fill="#327DFF" fill-opacity="0.08"/>
<path d="M14.125 32.5H12.875C12.5298 32.5 12.25 32.7798 12.25 33.125V34.375C12.25 34.7202 12.5298 35 12.875 35H14.125C14.4702 35 14.75 34.7202 14.75 34.375V33.125C14.75 32.7798 14.4702 32.5 14.125 32.5Z" fill="#327DFF"/>
<defs>
<filter id="filter0_ddd_4106_26470" x="0.5" y="9" width="151" height="118" filterUnits="userSpaceOnUse" color-interpolation-filters="sRGB">
<feFlood flood-opacity="0" result="BackgroundImageFix"/>
<feColorMatrix in="SourceAlpha" type="matrix" values="0 0 0 0 0 0 0 0 0 0 0 0 0 0 0 0 0 0 127 0" result="hardAlpha"/>
<feOffset dx="-1" dy="1"/>
<feGaussianBlur stdDeviation="3.5"/>
<feColorMatrix type="matrix" values="0 0 0 0 0 0 0 0 0 0 0 0 0 0 0 0 0 0 0.02 0"/>
<feBlend mode="normal" in2="BackgroundImageFix" result="effect1_dropShadow_4106_26470"/>
<feColorMatrix in="SourceAlpha" type="matrix" values="0 0 0 0 0 0 0 0 0 0 0 0 0 0 0 0 0 0 127 0" result="hardAlpha"/>
<feOffset dx="1" dy="4"/>
<feGaussianBlur stdDeviation="2.5"/>
<feColorMatrix type="matrix" values="0 0 0 0 0 0 0 0 0 0 0 0 0 0 0 0 0 0 0.02 0"/>
<feBlend mode="normal" in2="effect1_dropShadow_4106_26470" result="effect2_dropShadow_4106_26470"/>
<feColorMatrix in="SourceAlpha" type="matrix" values="0 0 0 0 0 0 0 0 0 0 0 0 0 0 0 0 0 0 127 0" result="hardAlpha"/>
<feOffset dy="4"/>
<feGaussianBlur stdDeviation="4"/>
<feColorMatrix type="matrix" values="0 0 0 0 0 0 0 0 0 0 0 0 0 0 0 0 0 0 0.02 0"/>
<feBlend mode="normal" in2="effect2_dropShadow_4106_26470" result="effect3_dropShadow_4106_26470"/>
<feBlend mode="normal" in="SourceGraphic" in2="effect3_dropShadow_4106_26470" result="shape"/>
</filter>
<filter id="filter1_i_4106_26470" x="8.3" y="26.6982" width="27.7" height="87.7375" filterUnits="userSpaceOnUse" color-interpolation-filters="sRGB">
<feFlood flood-opacity="0" result="BackgroundImageFix"/>
<feBlend mode="normal" in="SourceGraphic" in2="BackgroundImageFix" result="shape"/>
<feColorMatrix in="SourceAlpha" type="matrix" values="0 0 0 0 0 0 0 0 0 0 0 0 0 0 0 0 0 0 127 0" result="hardAlpha"/>
<feOffset dx="-0.2"/>
<feGaussianBlur stdDeviation="2"/>
<feComposite in2="hardAlpha" operator="arithmetic" k2="-1" k3="1"/>
<feColorMatrix type="matrix" values="0 0 0 0 0.921569 0 0 0 0 0.929412 0 0 0 0 0.941176 0 0 0 1 0"/>
<feBlend mode="normal" in2="shape" result="effect1_innerShadow_4106_26470"/>
</filter>
</defs>
</svg>
